name C:\Users\u0101727\Documents\MyRepositories\upper-imu-dc\Results\main_tracking\Case_46\FLX02_angularVelocities_groundFrame.mot
datacolumns 4
datarows 94
range 5.38000000 6.31000000
endheader 
time	radius_imu_x	radius_imu_y	radius_imu_z	
          5.38000000	          0.64856989	         -0.07021897	         -0.90588650	
          5.39000000	          0.65248129	         -0.06109064	         -0.91044386	
          5.40000000	          0.65777207	         -0.05160765	         -0.91437165	
          5.41000000	          0.66452813	         -0.04192567	         -0.91747905	
          5.42000000	          0.67285506	         -0.03222077	         -0.91958910	
          5.43000000	          0.68288756	         -0.02268668	         -0.92053971	
          5.44000000	          0.69479128	         -0.01352735	         -0.92018236	
          5.45000000	          0.70875470	         -0.00494565	         -0.91838062	
          5.46000000	          0.72497025	          0.00287013	         -0.91501121	
          5.47000000	          0.74360669	          0.00975974	         -0.90996938	
          5.48000000	          0.76477669	          0.01560254	         -0.90317840	
          5.49000000	          0.78850463	          0.02032561	         -0.89460111	
          5.50000000	          0.81469962	          0.02390755	         -0.88425085	
          5.51000000	          0.84313791	          0.02637779	         -0.87219913	
          5.52000000	          0.87345682	          0.02781229	         -0.85857882	
          5.53000000	          0.90515780	          0.02832760	         -0.84358407	
          5.54000000	          0.93761379	          0.02807465	         -0.82746954	
          5.55000000	          0.97007662	          0.02723333	         -0.81055102	
          5.56000000	          1.00168566	          0.02600671	         -0.79320658	
          5.57000000	          1.03148387	          0.02461378	         -0.77587446	
          5.58000000	          1.05844981	          0.02327921	         -0.75904306	
          5.59000000	          1.08155131	          0.02222072	         -0.74322942	
          5.60000000	          1.09982032	          0.02163543	         -0.72894552	
          5.61000000	          1.11244339	          0.02168643	         -0.71665411	
          5.62000000	          1.11885986	          0.02248959	         -0.70671885	
          5.63000000	          1.11885702	          0.02409896	         -0.69935569	
          5.64000000	          1.11264775	          0.02649002	         -0.69459459	
          5.65000000	          1.10090851	          0.02954372	         -0.69226213	
          5.66000000	          1.08474980	          0.03303892	         -0.69199630	
          5.67000000	          1.06560167	          0.03666227	         -0.69329881	
          5.68000000	          1.04503161	          0.04003818	         -0.69561644	
          5.69000000	          1.02453971	          0.04277342	         -0.69843173	
          5.70000000	          1.00537570	          0.04450679	         -0.70134451	
          5.71000000	          0.98840537	          0.04495494	         -0.70413269	
          5.72000000	          0.97403925	          0.04394774	         -0.70678549	
          5.73000000	          0.96222475	          0.04144886	         -0.70950644	
          5.74000000	          0.95249348	          0.03755972	         -0.71268681	
          5.75000000	          0.94405107	          0.03250758	         -0.71685387	
          5.76000000	          0.93589562	          0.02661937	         -0.72260047	
          5.77000000	          0.92695171	          0.02028430	         -0.73050486	
          5.78000000	          0.91620609	          0.01391002	         -0.74105056	
          5.79000000	          0.90283012	          0.00787809	         -0.75455671	
          5.80000000	          0.88627781	          0.00250433	         -0.77112650	
          5.81000000	          0.86635581	         -0.00199374	         -0.79061682	
          5.82000000	          0.84326590	         -0.00552225	         -0.81262914	
          5.83000000	          0.81761378	         -0.00812704	         -0.83652261	
          5.84000000	          0.79036917	         -0.00999383	         -0.86145357	
          5.85000000	          0.76276684	         -0.01142620	         -0.88644289	
          5.86000000	          0.73615971	         -0.01280173	         -0.91046383	
          5.87000000	          0.71185531	         -0.01451597	         -0.93253625	
          5.88000000	          0.69097148	         -0.01692726	         -0.95181144	
          5.89000000	          0.67433751	         -0.02031362	         -0.96763610	
          5.90000000	          0.66245076	         -0.02484710	         -0.97958923	
          5.91000000	          0.65548397	         -0.03058566	         -0.98749114	
          5.92000000	          0.65332992	         -0.03747910	         -0.99138863	
          5.93000000	          0.65566620	         -0.04538381	         -0.99152362	
          5.94000000	          0.66202424	         -0.05408175	         -0.98829358	
          5.95000000	          0.67185172	         -0.06330057	         -0.98221019	
          5.96000000	          0.68456235	         -0.07273336	         -0.97385982	
          5.97000000	          0.69957206	         -0.08205835	         -0.96386646	
          5.98000000	          0.71632378	         -0.09095899	         -0.95285636	
          5.99000000	          0.73430417	         -0.09914420	         -0.94142362	
          6.00000000	          0.75305447	         -0.10636608	         -0.93009643	
          6.01000000	          0.77217581	         -0.11243054	         -0.91930561	
          6.02000000	          0.79132787	         -0.11719689	         -0.90935800	
          6.03000000	          0.81022029	         -0.12056605	         -0.90041884	
          6.04000000	          0.82859814	         -0.12246174	         -0.89250710	
          6.05000000	          0.84622536	         -0.12281275	         -0.88550648	
          6.06000000	          0.86287171	         -0.12154446	         -0.87919139	
          6.07000000	          0.87830685	         -0.11858318	         -0.87326446	
          6.08000000	          0.89230214	         -0.11387050	         -0.86739983	
          6.09000000	          0.90463782	         -0.10738128	         -0.86128636	
          6.10000000	          0.91511439	         -0.09914000	         -0.85466521	
          6.11000000	          0.92356745	         -0.08923340	         -0.84735821	
          6.12000000	          0.92988393	         -0.07781786	         -0.83928564	
          6.13000000	          0.93401632	         -0.06511949	         -0.83047286	
          6.14000000	          0.93599027	         -0.05142422	         -0.82104554	
          6.15000000	          0.93590267	         -0.03705787	         -0.81121457	
          6.16000000	          0.93390970	         -0.02235942	         -0.80125317	
          6.17000000	          0.93020828	         -0.00765468	         -0.79146981	
          6.18000000	          0.92501687	          0.00676042	         -0.78217987	
          6.19000000	          0.91856064	          0.02062094	         -0.77367852	
          6.20000000	          0.91106211	          0.03367979	         -0.76621731	
          6.21000000	          0.90273396	          0.04568897	         -0.75998717	
          6.22000000	          0.89376923	          0.05638667	         -0.75511041	
          6.23000000	          0.88432688	          0.06549725	         -0.75164278	
          6.24000000	          0.87451466	          0.07274497	         -0.74958485	
          6.25000000	          0.86437361	          0.07787795	         -0.74889930	
          6.26000000	          0.85386676	          0.08069910	         -0.74953022	
          6.27000000	          0.84287264	          0.08110225	         -0.75142066	
          6.28000000	          0.83118346	          0.07911153	         -0.75452678	
          6.29000000	          0.81850878	          0.07492067	         -0.75882927	
          6.30000000	          0.80448663	          0.06892611	         -0.76434308	
          6.31000000	          0.78870385	          0.06174688	         -0.77112596	
